<svg
  xmlns="http://www.w3.org/2000/svg"
  width="24"
  height="24"
  viewBox="0 0 24 24"
  fill="none"
  stroke="currentColor"
  stroke-width="2"
  stroke-linecap="round"
  stroke-linejoin="round"
>
  <path d="M3.213 9.071a4.142 4.142 0 0 1 5.858-5.858L20.787 14.93a4.142 4.142 0 0 1-5.858 5.858L3.213 9.07Z" />
  <path d="m12 17.858-2.929 2.929a4.142 4.142 0 0 1-5.858-5.858L6.143 12 12 17.858Z" />
  <path d="m12 6.142 2.929-2.929a4.142 4.142 0 0 1 5.858 5.858L17.857 12 12 6.142Z" />
  <path d="M15.841 12.871a.788.788 0 1 1-1.114 1.114.788.788 0 0 1 1.114-1.114Z" />
  <path d="M12.129 9.159a.787.787 0 1 0-1.114 1.114.787.787 0 0 0 1.114-1.114Z" />
  <path d="M16.77 15.656a.787.787 0 1 1-1.114 1.114.787.787 0 0 1 1.114-1.114Z" />
  <path d="M9.345 8.23A.788.788 0 1 0 8.23 9.346.788.788 0 0 0 9.345 8.23Z" />
  <path d="M13.057 11.943a.787.787 0 1 1-1.113 1.114.787.787 0 0 1 1.113-1.114Z" />
  <path d="M13.985 14.728a.788.788 0 1 1-1.114 1.113.788.788 0 0 1 1.114-1.113Z" />
  <path d="M10.273 11.015a.787.787 0 1 0-1.114 1.114.787.787 0 0 0 1.114-1.114Z" />
</svg>
