<svg
  xmlns="http://www.w3.org/2000/svg"
  width="24"
  height="24"
  viewBox="0 0 24 24"
  fill="none"
  stroke="currentColor"
  stroke-width="2"
  stroke-linecap="round"
  stroke-linejoin="round"
>
  <path d="M3 10.911v-.18a6 6 0 0 1 4.618-5.757l.176-.04.167-.036a19 19 0 0 1 8.078 0l.167.037.176.04A6 6 0 0 1 21 10.91v5.464a4.519 4.519 0 0 1-3.538 4.411c-3.598.8-7.326.8-10.923 0A4.519 4.519 0 0 1 3 16.376V10.91Z" />
  <path d="M17.5 15.5V17" />
  <path d="M15.959 4.5A3 3 0 0 0 13 2h-2a3 3 0 0 0-2.959 2.5" />
  <path d="M3 14a22.16 22.16 0 0 0 18 0" />
  <path d="M10 13h4" />
</svg>
