<svg
  xmlns="http://www.w3.org/2000/svg"
  width="24"
  height="24"
  viewBox="0 0 24 24"
  fill="none"
  stroke="currentColor"
  stroke-width="2"
  stroke-linecap="round"
  stroke-linejoin="round"
>
  <path d="M3.794 14.97c.537 2.687.806 4.03 1.693 4.895.164.16.342.305.53.434C7.04 21 8.41 21 11.15 21h1.703c2.739 0 4.108 0 5.13-.7.19-.13.367-.276.53-.435.888-.865 1.157-2.208 1.694-4.894.771-3.856 1.157-5.784.269-7.15a4 4 0 0 0-.56-.683C18.75 6 16.785 6 12.853 6h-1.703C7.216 6 5.25 6 4.084 7.138a4 4 0 0 0-.559.683c-.888 1.366-.502 3.294.27 7.15Z" />
  <circle cx="15" cy="10" r="1" />
  <circle cx="9" cy="10" r="1" />
  <path d="M9 6V5a3 3 0 1 1 6 0v1" />
</svg>
