<svg
  xmlns="http://www.w3.org/2000/svg"
  width="24"
  height="24"
  viewBox="0 0 24 24"
  fill="none"
  stroke="currentColor"
  stroke-width="2"
  stroke-linecap="round"
  stroke-linejoin="round"
>
  <path d="M19 15v-3.062A3.938 3.938 0 0 0 15.063 8H8.936A3.938 3.938 0 0 0 5 11.938V15a7 7 0 1 0 14 0Z" />
  <path d="M16.5 8.5v-1a4.5 4.5 0 1 0-9 0v1" />
  <path d="M19 14h3" />
  <path d="M5 14H2" />
  <path d="M14.5 3.5 17 2" />
  <path d="M9.5 3.5 7 2" />
  <path d="m20.5 20-2-.8" />
  <path d="m20.5 8-2 .8" />
  <path d="m3.5 20 2-.8" />
  <path d="m3.5 8 2 .8" />
  <path d="M12 21.5V15" />
</svg>
