<svg
  xmlns="http://www.w3.org/2000/svg"
  width="24"
  height="24"
  viewBox="0 0 24 24"
  fill="none"
  stroke="currentColor"
  stroke-width="2"
  stroke-linecap="round"
  stroke-linejoin="round"
>
  <path d="M3.555 14.257c-.718-3.353-1.078-5.03-.177-6.143C4.278 7 5.993 7 9.422 7h5.156c3.43 0 5.143 0 6.044 1.114.9 1.114.541 2.79-.177 6.143l-.429 2c-.487 2.273-.73 3.409-1.555 4.076-.825.667-1.987.667-4.311.667h-4.3c-2.324 0-3.486 0-4.31-.667-.826-.667-1.07-1.803-1.556-4.076l-.429-2Z" />
  <path d="M3 11h18" />
  <path d="M10 14h4" />
  <path d="m18 9-3-6" />
  <path d="m6 9 3-6" />
</svg>
