<svg
  xmlns="http://www.w3.org/2000/svg"
  width="24"
  height="24"
  viewBox="0 0 24 24"
  fill="none"
  stroke="currentColor"
  stroke-width="2"
  stroke-linecap="round"
  stroke-linejoin="round"
>
  <path d="M19 22v-.5M5 22v-.5" />
  <path d="M12 21V2" />
  <path d="M15 8v2" />
  <path d="M2 10c0-3.771 0-5.657 1.172-6.828C4.343 2 6.229 2 10 2h4c3.771 0 5.657 0 6.828 1.172C22 4.343 22 6.229 22 10v3c0 3.771 0 5.657-1.172 6.828C19.657 21 17.771 21 14 21h-4c-3.771 0-5.657 0-6.828-1.172C2 18.657 2 16.771 2 13v-3Z" />
  <path d="M2 8h10" />
  <path d="M2 15h20" />
  <path d="M15 18h2" />
  <path d="M7 18h2" />
</svg>
