<svg
  xmlns="http://www.w3.org/2000/svg"
  width="24"
  height="24"
  viewBox="0 0 24 24"
  fill="none"
  stroke="currentColor"
  stroke-width="2"
  stroke-linecap="round"
  stroke-linejoin="round"
>
  <path d="M14.381 11.027a5.765 5.765 0 0 1 1.905-.321c.654 0 1.283.109 1.87.309m-11.04 2.594a4.351 4.351 0 0 0-.83-.08C3.919 13.53 2 15.426 2 17.765 2 20.104 3.919 22 6.286 22h10C19.442 22 22 19.472 22 16.353c0-2.472-1.607-4.573-3.845-5.338M7.116 13.609a5.576 5.576 0 0 1-.354-1.962C6.762 8.528 9.32 6 12.476 6c2.94 0 5.361 2.194 5.68 5.015m-11.04 2.594a4.29 4.29 0 0 1 1.55.634" />
  <path d="M8 4.5a3.5 3.5 0 0 0-1.5 6.663M8 4.5c.744 0 1.433.232 2 .627M8 4.5c-.744 0-1.433.232-2 .627M8 4.5c.954 0 1.818.381 2.45 1M8 4.5c-.954 0-1.818.381-2.45 1M8 4.5c1.273 0 2.388.68 3 1.696" />
  <path d="M7.5 2v.5" />
  <path d="M2.5 7.5H2" />
  <path d="m11.389 3.611-.216.216" />
  <path d="m3.827 11.173-.216.216" />
  <path d="m3.827 3.827-.216-.216" />
</svg>
