<svg
  xmlns="http://www.w3.org/2000/svg"
  width="24"
  height="24"
  viewBox="0 0 24 24"
  fill="none"
  stroke="currentColor"
  stroke-width="2"
  stroke-linecap="round"
  stroke-linejoin="round"
>
  <path d="M12 22c5.523 0 10-4.477 10-10S17.523 2 12 2 2 6.477 2 12s4.477 10 10 10Z" />
  <path d="m15.5 9 .172.172c1.333 1.333 2 2 2 2.828 0 .828-.667 1.495-2 2.828L15.5 15" />
  <path d="M13.294 7.17 12 12l-1.294 4.83" />
  <path d="m8.5 9-.171.172c-1.334 1.333-2 2-2 2.828 0 .828.666 1.495 2 2.828L8.5 15" />
</svg>
