<svg
  xmlns="http://www.w3.org/2000/svg"
  width="24"
  height="24"
  viewBox="0 0 24 24"
  fill="none"
  stroke="currentColor"
  stroke-width="2"
  stroke-linecap="round"
  stroke-linejoin="round"
>
  <path d="M2 12c0-4.714 0-7.071 1.464-8.536C4.93 2 7.286 2 12 2c4.714 0 7.071 0 8.535 1.464C22 4.93 22 7.286 22 12c0 4.714 0 7.071-1.465 8.535C19.072 22 16.714 22 12 22s-7.071 0-8.536-1.465C2 19.072 2 16.714 2 12Z" />
  <ellipse cx="15" cy="10.5" rx="1" ry="1.5" />
  <ellipse cx="9" cy="10.5" rx="1" ry="1.5" />
  <path d="M16.5 21.5 17 15l-3.143-1.258a5 5 0 0 0-3.714 0L7 15l.5 6.5" />
  <path d="m7 15-4.5-2" />
  <path d="m7 19-3.5 1.5" />
  <path d="m17 15 4.5-2" />
  <path d="m17 19 3.5 1.5" />
</svg>
