<svg
  xmlns="http://www.w3.org/2000/svg"
  width="24"
  height="24"
  viewBox="0 0 24 24"
  fill="none"
  stroke="currentColor"
  stroke-width="2"
  stroke-linecap="round"
  stroke-linejoin="round"
>
  <circle cx="12" cy="11" r="2" />
  <path d="M20.5 7.5a1 1 0 1 1-2 0 1 1 0 0 1 2 0Z" />
  <path d="M20.5 16a1 1 0 1 1-2 0 1 1 0 0 1 2 0Z" />
  <path d="M5.5 7.5a1 1 0 1 1-2 0 1 1 0 0 1 2 0Z" />
  <path d="M5.5 16a1 1 0 1 1-2 0 1 1 0 0 1 2 0Z" />
  <path d="M12 2.5a1 1 0 1 1 0 2 1 1 0 0 1 0-2Z" />
  <path d="M12 18.5a1 1 0 1 1 0 2 1 1 0 0 1 0-2Z" />
  <path d="m13.5 13 5 9" />
  <path d="m10.5 13-5 9" />
  <path d="M10.564 3.783a3 3 0 0 1 2.872 0l4.794 2.614a3 3 0 0 1 1.564 2.634v4.938a3 3 0 0 1-1.564 2.634l-4.794 2.614a3 3 0 0 1-2.872 0l-4.795-2.614a3 3 0 0 1-1.563-2.634V9.03a3 3 0 0 1 1.563-2.634l4.795-2.614Z" />
</svg>
