<svg
  xmlns="http://www.w3.org/2000/svg"
  width="24"
  height="24"
  viewBox="0 0 24 24"
  fill="none"
  stroke="currentColor"
  stroke-width="2"
  stroke-linecap="round"
  stroke-linejoin="round"
>
  <path d="M12 2H8.667a3.333 3.333 0 1 0 0 6.667H12V2Z" />
  <path d="M12 8.667H8.667a3.333 3.333 0 0 0 0 6.666H12V8.666Z" />
  <path d="M18.667 12A3.333 3.333 0 1 1 12 12a3.333 3.333 0 0 1 6.667 0Z" />
  <path d="M8.667 15.334H12v3.333a3.333 3.333 0 1 1-3.333-3.334Z" />
  <path d="M12 2h3.333a3.333 3.333 0 1 1 0 6.667H12V2Z" />
</svg>
