<svg
  xmlns="http://www.w3.org/2000/svg"
  width="24"
  height="24"
  viewBox="0 0 24 24"
  fill="none"
  stroke="currentColor"
  stroke-width="2"
  stroke-linecap="round"
  stroke-linejoin="round"
>
  <path d="M4 10c0-3.771 0-5.657 1.172-6.828C6.343 2 8.229 2 12 2c3.771 0 5.657 0 6.828 1.172C20 4.343 20 6.229 20 10v3c0 3.771 0 5.657-1.172 6.828C17.657 21 15.771 21 12 21c-3.771 0-5.657 0-6.828-1.172C4 18.657 4 16.771 4 13v-3Z" />
  <path d="M17 21v1h-1v-1m-8 0v1H7v-1" />
  <path d="M20 11.5H4" />
  <path d="M17 7v2" />
  <path d="M17 14v2" />
</svg>
