<svg
  xmlns="http://www.w3.org/2000/svg"
  width="24"
  height="24"
  viewBox="0 0 24 24"
  fill="none"
  stroke="currentColor"
  stroke-width="2"
  stroke-linecap="round"
  stroke-linejoin="round"
>
  <path d="M22 22H2" />
  <path d="M3 22V11.347a3 3 0 0 1 1.007-2.242l6-5.333a3 3 0 0 1 3.986 0l6 5.333A3 3 0 0 1 21 11.347V22" />
  <path d="M10 9h4" />
  <path d="M9 15.5h6" />
  <path d="M9 18.5h6" />
  <path d="M18 22v-6c0-1.886 0-2.828-.586-3.414C16.828 12 15.886 12 14 12h-4c-1.886 0-2.828 0-3.414.586C6 13.172 6 14.114 6 16v6" />
</svg>
