<svg
  xmlns="http://www.w3.org/2000/svg"
  width="24"
  height="24"
  viewBox="0 0 24 24"
  fill="none"
  stroke="currentColor"
  stroke-width="2"
  stroke-linecap="round"
  stroke-linejoin="round"
>
  <path d="M7 9a1 1 0 1 1-2 0 1 1 0 0 1 2 0Z" />
  <path d="M7 12a1 1 0 1 1-2 0 1 1 0 0 1 2 0Z" />
  <path d="M10 12a1 1 0 1 1-2 0 1 1 0 0 1 2 0Z" />
  <path d="M10 9a1 1 0 1 1-2 0 1 1 0 0 1 2 0Z" />
  <path d="M13 9a1 1 0 1 1-2 0 1 1 0 0 1 2 0Z" />
  <path d="M13 12a1 1 0 1 1-2 0 1 1 0 0 1 2 0Z" />
  <path d="M16 9a1 1 0 1 1-2 0 1 1 0 0 1 2 0Z" />
  <path d="M16 12a1 1 0 1 1-2 0 1 1 0 0 1 2 0Z" />
  <path d="M19 9a1 1 0 1 1-2 0 1 1 0 0 1 2 0Z" />
  <path d="M19 12a1 1 0 1 1-2 0 1 1 0 0 1 2 0Z" />
  <path d="M2 11c0-2.828 0-4.243.879-5.121C3.757 5 5.172 5 8 5h8c2.828 0 4.243 0 5.121.879C22 6.757 22 8.172 22 11v2c0 2.828 0 4.243-.879 5.121C20.243 19 18.828 19 16 19H8c-2.828 0-4.243 0-5.121-.879C2 17.243 2 15.828 2 13v-2Z" />
  <path d="M7 16h10" />
</svg>
