<svg
  xmlns="http://www.w3.org/2000/svg"
  width="24"
  height="24"
  viewBox="0 0 24 24"
  fill="none"
  stroke="currentColor"
  stroke-width="2"
  stroke-linecap="round"
  stroke-linejoin="round"
>
  <path d="M9 19a3 3 0 1 1-6 0 3 3 0 0 1 6 0Z" />
  <path d="M21 17a3 3 0 1 1-6 0 3 3 0 0 1 6 0Z" />
  <path d="M9 19V8" />
  <path d="M21 17V6" />
  <path d="m15.735 3.755-4 1.333c-1.32.44-1.98.66-2.357 1.184C9 6.796 9 7.492 9 8.882V12l12-4v-.45c0-2.533 0-3.8-.83-4.398-.831-.599-2.032-.198-4.435.603Z" />
</svg>
