<svg
  xmlns="http://www.w3.org/2000/svg"
  width="24"
  height="24"
  viewBox="0 0 24 24"
  fill="none"
  stroke="currentColor"
  stroke-width="2"
  stroke-linecap="round"
  stroke-linejoin="round"
>
  <path d="M2 12c0-3.771 0-5.657 1.172-6.828C4.343 4 6.229 4 10 4h4c3.771 0 5.657 0 6.828 1.172C22 6.343 22 8.229 22 12c0 3.771 0 5.657-1.172 6.828C19.657 20 17.771 20 14 20h-4c-3.771 0-5.657 0-6.828-1.172C2 17.657 2 15.771 2 12Z" />
  <path d="M12 10v4m-1.732-3 3.464 2m0-2-3.464 2" />
  <path d="M6.733 10v4M5 11l3.464 2m0-2L5 13" />
  <path d="M17.268 10v4m-1.732-3L19 13m0-2-3.465 2" />
</svg>
