<svg
  xmlns="http://www.w3.org/2000/svg"
  width="24"
  height="24"
  viewBox="0 0 24 24"
  fill="none"
  stroke="currentColor"
  stroke-width="2"
  stroke-linecap="round"
  stroke-linejoin="round"
>
  <path d="M3.464 20.536C4.93 22 7.286 22 12 22c4.714 0 7.071 0 8.535-1.465C22 19.072 22 16.714 22 12s0-7.071-1.465-8.536M3.465 20.536C2 19.07 2 16.714 2 12c0-4.714 0-7.071 1.464-8.536C4.93 2 7.286 2 12 2c4.714 0 7.071 0 8.535 1.464M3.465 20.536l17.07-17.072" />
  <path d="M18 17h-5" />
  <path d="M10.5 8H8m0 0H5.5M8 8V5.5M8 8v2.5" />
</svg>
