<svg
  xmlns="http://www.w3.org/2000/svg"
  width="24"
  height="24"
  viewBox="0 0 24 24"
  fill="none"
  stroke="currentColor"
  stroke-width="2"
  stroke-linecap="round"
  stroke-linejoin="round"
>
  <path d="M2 2h20" />
  <path d="m9 10.5 1.293-1.293c.333-.333.5-.5.707-.5.207 0 .374.167.707.5l.586.586c.333.333.5.5.707.5.207 0 .374-.167.707-.5L15 8.5" />
  <path d="M12 21v-4" />
  <path d="m10 22 2-1" />
  <path d="m14 22-2-1" />
  <path d="M20 2v8.5c0 3.064 0 4.596-1.004 5.548s-2.62.952-5.853.952h-2.286c-3.232 0-4.849 0-5.853-.952C4 15.096 4 13.564 4 10.5V2" />
</svg>
