<svg
  xmlns="http://www.w3.org/2000/svg"
  width="24"
  height="24"
  viewBox="0 0 24 24"
  fill="none"
  stroke="currentColor"
  stroke-width="2"
  stroke-linecap="round"
  stroke-linejoin="round"
>
  <path d="M9.998 6c-.015 1.707-.11 2.648-.73 3.268-.62.62-1.561.716-3.268.73" />
  <path d="M9.998 17.997c-.015-1.706-.11-2.647-.73-3.267-.62-.62-1.561-.716-3.268-.73" />
  <path d="M14 6c.014 1.707.11 2.648.73 3.268.62.62 1.56.716 3.267.73" />
  <path d="M14 17.997c.014-1.706.11-2.647.73-3.267.62-.62 1.56-.716 3.267-.73" />
  <circle cx="12" cy="12" r="10" />
</svg>
