<svg
  xmlns="http://www.w3.org/2000/svg"
  width="24"
  height="24"
  viewBox="0 0 24 24"
  fill="none"
  stroke="currentColor"
  stroke-width="2"
  stroke-linecap="round"
  stroke-linejoin="round"
>
  <circle cx="12" cy="12" r="10" />
  <path d="M12 22h10" />
  <path d="M13.5 7.5a1.5 1.5 0 1 1-3 0 1.5 1.5 0 0 1 3 0Z" />
  <path d="M13.5 16.5a1.5 1.5 0 1 1-3 0 1.5 1.5 0 0 1 3 0Z" />
  <path d="M7.5 10.5a1.5 1.5 0 1 1 0 3 1.5 1.5 0 0 1 0-3Z" />
  <path d="M16.5 10.5a1.5 1.5 0 1 1 0 3 1.5 1.5 0 0 1 0-3Z" />
</svg>
