<svg
  xmlns="http://www.w3.org/2000/svg"
  width="24"
  height="24"
  viewBox="0 0 24 24"
  fill="none"
  stroke="currentColor"
  stroke-width="2"
  stroke-linecap="round"
  stroke-linejoin="round"
>
  <path d="M10 22c-3.771 0-5.657 0-6.828-1.172C2 19.657 2 18.771 2 15" />
  <path d="M22 15c0 3.771 0 4.657-1.172 5.828C19.657 22 17.771 22 14 22" />
  <path d="M14 2c3.771 0 5.657 0 6.828 1.172C22 4.343 22 5.229 22 9" />
  <path d="M10 2C6.229 2 4.343 2 3.172 3.172 2 4.343 2 5.229 2 9" />
  <path d="M2 12h20" />
</svg>
