<svg
  xmlns="http://www.w3.org/2000/svg"
  width="24"
  height="24"
  viewBox="0 0 24 24"
  fill="none"
  stroke="currentColor"
  stroke-width="2"
  stroke-linecap="round"
  stroke-linejoin="round"
>
  <path d="M22 19h-8M2 19h8" />
  <path d="M12 17v-3" />
  <circle cx="12" cy="19" r="2" />
  <path d="M2 11a3 3 0 0 1 3-3h14a3 3 0 1 1 0 6H5a3 3 0 0 1-3-3Z" />
  <path d="M2 5a3 3 0 0 1 3-3h14a3 3 0 1 1 0 6H5a3 3 0 0 1-3-3Z" />
  <path d="M13 5h6" />
  <path d="M13 11h6" />
  <circle cx="6" cy="5" r="1" />
  <circle cx="6" cy="11" r="1" />
</svg>
