<svg
  xmlns="http://www.w3.org/2000/svg"
  width="24"
  height="24"
  viewBox="0 0 24 24"
  fill="none"
  stroke="currentColor"
  stroke-width="2"
  stroke-linecap="round"
  stroke-linejoin="round"
>
  <path d="M22 12c0 5.523-4.477 10-10 10S2 17.523 2 12 6.477 2 12 2s10 4.477 10 10Z" />
  <path d="m19 19-1.5-1.5" />
  <path d="m19 5-1.5 1.5" />
  <path d="m5 19 1.5-1.5" />
  <path d="m5 5 1.5 1.5" />
  <path d="M2 12h2" />
  <path d="M20 12h2" />
  <path d="M12 4V2" />
  <path d="M10.121 14.364a3 3 0 1 1 4.243-4.243c.446.446.757 1.371.971 2.346.321 1.459.482 2.188-.099 2.77-.58.58-1.31.42-2.769.098-.975-.214-1.9-.525-2.346-.971Z" />
</svg>
