<svg
  xmlns="http://www.w3.org/2000/svg"
  width="24"
  height="24"
  viewBox="0 0 24 24"
  fill="none"
  stroke="currentColor"
  stroke-width="2"
  stroke-linecap="round"
  stroke-linejoin="round"
>
  <path d="M8 5a3 3 0 1 1-6 0 3 3 0 0 1 6 0Z" />
  <path d="M22 5a3 3 0 1 1-6 0 3 3 0 0 1 6 0Z" />
  <path d="M8 19a3 3 0 1 1-6 0 3 3 0 0 1 6 0Z" />
  <path d="M22 19a3 3 0 1 1-6 0 3 3 0 0 1 6 0Z" />
  <path d="M8 19h8" />
  <path d="M8 5h8" />
  <path d="M19 16V8" />
  <path d="M5 16V8" />
</svg>
