<svg
  xmlns="http://www.w3.org/2000/svg"
  width="24"
  height="24"
  viewBox="0 0 24 24"
  fill="none"
  stroke="currentColor"
  stroke-width="2"
  stroke-linecap="round"
  stroke-linejoin="round"
>
  <path d="M8 22h8" />
  <path d="M5 19h14" />
  <path d="M2 16h20" />
  <path d="M12 6a6 6 0 0 0-4.5 9.969h9A6 6 0 0 0 12 6Z" />
  <path d="m12 10 .53-.53a.75.75 0 0 0-1.06 0L12 10Zm1.47 2.53a.75.75 0 1 0 1.06-1.06l-1.06 1.06Zm-4-1.06a.75.75 0 1 0 1.06 1.06l-1.06-1.06ZM12.75 16v-6h-1.5v6h1.5Zm-1.28-5.47 2 2 1.06-1.06-2-2-1.06 1.06Zm0-1.06-2 2 1.06 1.06 2-2-1.06-1.06Z" />
  <path d="M12 2v1" />
  <path d="M22 12h-1" />
  <path d="M3 12H2" />
  <path d="m19.07 4.93-.392.393" />
  <path d="m5.322 5.322-.393-.393" />
</svg>
