<svg
  xmlns="http://www.w3.org/2000/svg"
  width="24"
  height="24"
  viewBox="0 0 24 24"
  fill="none"
  stroke="currentColor"
  stroke-width="2"
  stroke-linecap="round"
  stroke-linejoin="round"
>
  <path d="M9 9h6" />
  <path d="M12 15V9" />
  <path d="M6 4a2 2 0 1 1-4 0 2 2 0 0 1 4 0Z" />
  <path d="M6 20a2 2 0 1 1-4 0 2 2 0 0 1 4 0Z" />
  <path d="M22 4a2 2 0 1 1-4 0 2 2 0 0 1 4 0Z" />
  <path d="M22 20a2 2 0 1 1-4 0 2 2 0 0 1 4 0Z" />
  <path d="M6 20h12" />
  <path d="M18 4H6" />
  <path d="M20 18V6" />
  <path d="M4 6v12" />
</svg>
