<svg
  xmlns="http://www.w3.org/2000/svg"
  width="24"
  height="24"
  viewBox="0 0 24 24"
  fill="none"
  stroke="currentColor"
  stroke-width="2"
  stroke-linecap="round"
  stroke-linejoin="round"
>
  <path d="M4 10c0-3.771 0-5.657 1.172-6.828C6.343 2 8.229 2 12 2c3.771 0 5.657 0 6.828 1.172C20 4.343 20 6.229 20 10v2c0 3.771 0 5.657-1.172 6.828C17.657 20 15.771 20 12 20c-3.771 0-5.657 0-6.828-1.172C4 17.657 4 15.771 4 12v-2Z" />
  <path d="M4 13h16" />
  <path d="M15.5 16H17" />
  <path d="M7 16h1.5" />
  <path d="m7 20-1 2" />
  <path d="m17 20 1 2" />
  <path d="M10 2v.5a2 2 0 1 0 4 0V2" />
</svg>
