<svg
  xmlns="http://www.w3.org/2000/svg"
  width="24"
  height="24"
  viewBox="0 0 24 24"
  fill="none"
  stroke="currentColor"
  stroke-width="2"
  stroke-linecap="round"
  stroke-linejoin="round"
>
  <circle cx="12" cy="12" r="5" />
  <path d="M12 7v4" />
  <path d="M13 3.5a1 1 0 1 1-2 0 1 1 0 0 1 2 0Z" />
  <path d="M20.5 13a1 1 0 1 1 0-2 1 1 0 0 1 0 2Z" />
  <path d="M3.5 13a1 1 0 1 1 0-2 1 1 0 0 1 0 2Z" />
  <path d="M6.697 5.282a1 1 0 1 1-1.414 1.415 1 1 0 0 1 1.414-1.415Z" />
  <path d="M18.717 17.303a1 1 0 1 1-1.414 1.415 1 1 0 0 1 1.414-1.415Z" />
  <path d="M18.717 6.697a1 1 0 1 1-1.414-1.415 1 1 0 0 1 1.414 1.415Z" />
  <path d="M6.697 18.718a1 1 0 1 1-1.414-1.415 1 1 0 0 1 1.414 1.415Z" />
</svg>
