<svg
  xmlns="http://www.w3.org/2000/svg"
  width="24"
  height="24"
  viewBox="0 0 24 24"
  fill="none"
  stroke="currentColor"
  stroke-width="2"
  stroke-linecap="round"
  stroke-linejoin="round"
>
  <path d="M7 15a1 1 0 1 1-2 0 1 1 0 0 1 2 0Z" />
  <path d="M10 15a1 1 0 1 1-2 0 1 1 0 0 1 2 0Z" />
  <path d="M2 15c0-1.886 0-2.828.586-3.414C3.172 11 4.114 11 6 11h12c1.886 0 2.828 0 3.414.586C22 12.172 22 13.114 22 15c0 1.886 0 2.828-.586 3.414C20.828 19 19.886 19 18 19H6c-1.886 0-2.828 0-3.414-.586C2 17.828 2 16.886 2 15Z" />
  <path d="M7 11 3 4" />
  <path d="m17 11 4-7" />
  <path d="M14 15h4" />
  <path d="M17.167 5.397A5.502 5.502 0 0 0 7 5.397" />
  <path d="M14.965 6.658a3.001 3.001 0 0 0-5.76 0" />
  <path d="M13.084 7a1 1 0 1 1-2 0 1 1 0 0 1 2 0Z" />
</svg>
